<svg 
 xmlns="http://www.w3.org/2000/svg"
 xmlns:xlink="http://www.w3.org/1999/xlink"
 width="152px" height="56px">
<path fill-rule="evenodd"  fill="rgb(253, 141, 123)"
 d="M57.000,4.000 C55.895,4.000 55.000,3.105 55.000,2.000 C55.000,0.895 55.895,-0.000 57.000,-0.000 C58.104,-0.000 59.000,0.895 59.000,2.000 C59.000,3.105 58.104,4.000 57.000,4.000 ZM46.500,17.000 C42.910,17.000 40.000,14.090 40.000,10.500 C40.000,6.910 42.910,4.000 46.500,4.000 C50.090,4.000 53.000,6.910 53.000,10.500 C53.000,14.090 50.090,17.000 46.500,17.000 Z"/>
<path fill-rule="evenodd"  fill="rgb(253, 141, 123)"
 d="M23.000,10.000 C35.703,10.000 46.000,20.297 46.000,33.000 C46.000,45.703 35.703,56.000 23.000,56.000 C10.297,56.000 -0.000,45.703 -0.000,33.000 C-0.000,20.297 10.297,10.000 23.000,10.000 Z"/>
<text kerning="auto" font-family="Myriad Pro" fill="rgb(0, 0, 0)" font-size="24px" x="20px" y="41.062px"><tspan font-size="24px" font-family="BebasNeueRegular" fill="#FFFFFF">P</tspan></text>
<path fill-rule="evenodd"  fill="rgb(59, 64, 64)"
 d="M137.000,50.000 L70.000,50.000 C63.954,50.000 58.746,46.420 56.372,41.267 L51.001,35.000 L56.372,28.733 C58.746,23.579 63.954,20.000 70.000,20.000 L137.000,20.000 C145.284,20.000 152.000,26.716 152.000,35.000 C152.000,43.284 145.284,50.000 137.000,50.000 Z"/>
<text kerning="auto" font-family="Roboto" fill="rgb(0, 0, 0)" font-size="16px" x="78px" y="41.062px"><tspan font-size="16px" font-family="Roboto" fill="#FFFFFF">Popular</tspan></text>
</svg>